<!DOCTYPE svg PUBLIC "-//W3C//DTD SVG 1.1//EN" "http://www.w3.org/Graphics/SVG/1.1/DTD/svg11.dtd">

<!-- Uploaded to: SVG Repo, www.svgrepo.com, Transformed by: SVG Repo Mixer Tools -->
<svg fill="#FFFFFF" width="800px" height="800px" viewBox="0 0 32 32" id="icon" xmlns="http://www.w3.org/2000/svg">

<g id="SVGRepo_bgCarrier" stroke-width="0"/>

<g id="SVGRepo_tracerCarrier" stroke-linecap="round" stroke-linejoin="round"/>

<g id="SVGRepo_iconCarrier"> <defs> <style> .cls-1 { fill: none; } </style> </defs> <path d="M28,10H22V4a2.0023,2.0023,0,0,0-2-2H4A2.0025,2.0025,0,0,0,2,4V20a2.0025,2.0025,0,0,0,2,2h6v6a2,2,0,0,0,2,2H28a2,2,0,0,0,2-2V12A2,2,0,0,0,28,10ZM12,20V12h8v8ZM3.9988,4H20v6H12a2.0023,2.0023,0,0,0-2,2v8H4Z"/> <rect id="_Transparent_Rectangle_" data-name="&lt;Transparent Rectangle&gt;" class="cls-1" width="32" height="32"/> </g>

</svg>